<?xml version="1.0" standalone="no"?>
<!DOCTYPE svg PUBLIC "-//W3C//DTD SVG 20010904//EN"
 "http://www.w3.org/TR/2001/REC-SVG-20010904/DTD/svg10.dtd">
<svg version="1.0" xmlns="http://www.w3.org/2000/svg"
 width="500.000000pt" height="500.000000pt" viewBox="0 0 500.000000 500.000000"
 preserveAspectRatio="xMidYMid meet">

<g transform="translate(0.000000,500.000000) scale(0.100000,-0.100000)"
fill="#000000" stroke="none">
<path d="M2925 3796 c-97 -43 -124 -171 -54 -251 74 -84 213 -64 259 38 35 76
19 144 -44 192 -44 33 -115 43 -161 21z"/>
<path d="M2497 3550 c66 -97 124 -214 159 -320 25 -78 28 -98 28 -240 1 -145
-1 -161 -28 -244 -66 -200 -226 -367 -444 -462 -80 -35 -101 -49 -62 -40 14 2
50 8 80 11 152 17 334 82 477 171 100 62 242 204 316 315 123 186 223 455 271
728 l6 34 -50 -47 c-126 -118 -287 -127 -498 -26 -82 39 -177 98 -261 161
l-44 33 50 -74z"/>
<path d="M1822 2969 c-46 -25 -83 -50 -83 -55 0 -5 25 -14 55 -21 99 -22 194
-78 279 -164 64 -65 76 -74 71 -51 -12 48 -41 121 -67 165 -26 44 -127 152
-156 166 -11 5 -43 -8 -99 -40z"/>
<path d="M2050 2081 c0 -35 -2 -38 -25 -33 -34 6 -55 -14 -55 -53 0 -42 15
-53 73 -53 l47 0 0 89 c0 82 -1 89 -20 89 -17 0 -20 -7 -20 -39z m-2 -89 c3
-16 -2 -22 -16 -22 -24 0 -35 23 -19 39 16 16 31 8 35 -17z"/>
<path d="M2970 2030 c0 -73 3 -90 15 -90 9 0 15 9 15 22 l0 21 23 -21 c13 -12
34 -22 47 -22 l24 0 -27 28 c-27 29 -27 29 -7 47 11 10 20 22 20 27 0 14 -37
9 -50 -7 -22 -26 -30 -16 -30 35 0 38 -4 50 -15 50 -12 0 -15 -17 -15 -90z"/>
<path d="M1700 2026 l0 -86 48 0 c26 0 53 5 60 12 17 17 15 67 -3 74 -11 5
-12 9 -2 25 20 31 -2 53 -57 57 l-46 3 0 -85z m70 39 c0 -8 -7 -15 -15 -15 -8
0 -15 7 -15 15 0 8 7 15 15 15 8 0 15 -7 15 -15z m8 -72 c-5 -26 -38 -29 -38
-4 0 15 6 21 21 21 14 0 19 -5 17 -17z"/>
<path d="M2490 2096 c0 -8 10 -16 23 -18 20 -3 22 -9 25 -70 2 -50 7 -68 17
-68 10 0 15 18 17 68 3 61 5 67 26 70 12 2 22 10 22 18 0 11 -15 14 -65 14
-50 0 -65 -3 -65 -14z"/>
<path d="M2380 2072 c0 -10 -6 -24 -12 -30 -10 -10 -10 -15 -1 -20 6 -4 13
-23 15 -42 3 -30 7 -35 31 -38 19 -2 27 1 27 12 0 9 -4 16 -10 16 -5 0 -10 11
-10 25 0 14 5 25 10 25 6 0 10 7 10 15 0 8 -4 15 -9 15 -5 0 -11 9 -14 20 -6
25 -37 27 -37 2z"/>
<path d="M1840 2001 c0 -53 8 -61 59 -61 38 0 51 17 51 67 0 32 -4 43 -15 43
-10 0 -15 -10 -15 -27 0 -37 -14 -57 -34 -50 -10 4 -16 19 -16 42 0 24 -4 35
-15 35 -11 0 -15 -12 -15 -49z"/>
<path d="M2113 2023 c-15 -23 -15 -28 -2 -52 10 -18 24 -27 47 -29 18 -2 32
-7 32 -12 0 -13 -23 -18 -41 -9 -8 4 -22 3 -30 -2 -12 -8 -11 -12 5 -24 27
-21 62 -19 86 5 16 16 20 33 20 84 l0 64 -50 0 c-43 1 -53 -3 -67 -25z m75
-26 c4 -20 -25 -34 -40 -19 -15 15 -1 44 19 40 10 -2 19 -11 21 -21z"/>
<path d="M2260 2030 c-24 -24 -25 -38 -4 -68 12 -18 24 -22 52 -20 25 2 37 8
37 18 0 10 -8 14 -27 12 -14 -2 -29 2 -33 7 -4 7 8 11 34 11 45 0 53 16 23 43
-25 23 -58 21 -82 -3z m55 -10 c3 -5 -3 -10 -15 -10 -12 0 -18 5 -15 10 3 6
10 10 15 10 5 0 12 -4 15 -10z"/>
<path d="M2630 1993 c0 -39 4 -53 14 -53 10 0 16 13 18 38 2 29 8 38 25 40 12
2 24 9 26 17 4 10 -5 13 -39 13 l-44 -1 0 -54z"/>
<path d="M2735 2034 c-18 -19 -20 -68 -2 -82 7 -6 34 -11 60 -10 l47 1 0 52 0
52 -45 1 c-27 1 -50 -5 -60 -14z m69 -30 c7 -19 -1 -34 -19 -34 -18 0 -28 17
-21 35 7 20 32 19 40 -1z"/>
<path d="M2877 2032 c-36 -39 -10 -92 44 -92 36 0 38 17 3 30 -31 12 -29 44 4
48 12 2 22 10 22 18 0 21 -54 18 -73 -4z"/>
<path d="M3107 2032 c-35 -39 -10 -92 42 -92 16 0 34 7 41 15 14 16 7 19 -37
15 -13 -1 -23 3 -23 9 0 6 16 11 35 11 28 0 35 4 35 20 0 38 -65 53 -93 22z
m58 -12 c3 -5 -3 -10 -15 -10 -12 0 -18 5 -15 10 3 6 10 10 15 10 5 0 12 -4
15 -10z"/>
<path d="M3220 1993 c0 -40 4 -53 15 -53 10 0 15 10 15 28 0 34 10 49 34 53
11 2 21 9 23 16 3 7 -11 11 -41 11 l-46 -1 0 -54z"/>
</g>
</svg>
